<svg xmlns="http://www.w3.org/2000/svg" xmlns:xlink="http://www.w3.org/1999/xlink" width="777.5" height="756" viewBox="0 0 777.5 756"><defs><style>.a,.i{fill:#639;}.b{clip-path:url(#e);}.c{opacity:0.1;fill:url(#f);}.d{opacity:0.05;fill:url(#i);}.e,.f,.h{fill:#fff;}.e{font-size:18px;opacity:0.7;}.e,.k,.n{font-family:Montserrat-Regular, Montserrat;}.f,.l{font-size:25px;font-family:PingFangSC-Medium, PingFang SC;}.f,.i,.l{font-weight:500;}.g,.i{font-family:Montserrat-Medium, Montserrat;}.i{font-size:14px;}.j{fill:#f1f5fb;}.k,.l,.q{fill:#222;}.k{font-size:15px;}.m,.o{fill:#999;}.m{font-size:12px;font-family:PingFangSC-Regular, PingFang SC;}.o{opacity:0.5;}.p{fill:#e8ebf3;opacity:0.2;}.q{font-size:22px;font-family:OpenSans, Open Sans;}.r{filter:url(#r);}.s{filter:url(#p);}.t{filter:url(#n);}.u{filter:url(#l);}.v{filter:url(#j);}.w{filter:url(#g);}.x{filter:url(#c);}.y{filter:url(#a);}</style><filter id="a" x="493.5" y="113.5" width="284" height="525" filterUnits="userSpaceOnUse"><feOffset dx="7" dy="7" input="SourceAlpha"/><feGaussianBlur stdDeviation="12.5" result="b"/><feFlood flood-opacity="0.2"/><feComposite operator="in" in2="b"/><feComposite in="SourceGraphic"/></filter><filter id="c" x="493.5" y="113.5" width="284" height="525" filterUnits="userSpaceOnUse"><feOffset dx="7" dy="7" input="SourceAlpha"/><feGaussianBlur stdDeviation="12.5" result="d"/><feFlood flood-opacity="0.2"/><feComposite operator="in" in2="d"/><feComposite in="SourceGraphic"/></filter><clipPath id="e"><g class="y" transform="matrix(1, 0, 0, 1, 0, 0)"><path class="a" d="M0,0H189a20,20,0,0,1,20,20V430a20,20,0,0,1-20,20H0a0,0,0,0,1,0,0V0A0,0,0,0,1,0,0Z"/></g></clipPath><linearGradient id="f" x1="0.486" y1="0.422" x2="0.833" y2="0.897" gradientUnits="objectBoundingBox"><stop offset="0" stop-color="#af74eb"/><stop offset="1" stop-color="#639"/></linearGradient><filter id="g" x="442.5" y="289.459" width="462.807" height="426.556" filterUnits="userSpaceOnUse"><feOffset dx="-15" dy="2" input="SourceAlpha"/><feGaussianBlur stdDeviation="13.5" result="h"/><feFlood flood-opacity="0.333"/><feComposite operator="in" in2="h"/><feComposite in="SourceGraphic"/></filter><linearGradient id="i" x1="0.486" y1="0.422" x2="0.833" y2="0.897" gradientUnits="objectBoundingBox"><stop offset="0" stop-color="#d1a3ff"/><stop offset="1" stop-color="#639"/></linearGradient><filter id="j" x="315.506" y="11.5" width="462.807" height="426.556" filterUnits="userSpaceOnUse"><feOffset dy="15" input="SourceAlpha"/><feGaussianBlur stdDeviation="13.5" result="k"/><feFlood flood-opacity="0.502"/><feComposite operator="in" in2="k"/><feComposite in="SourceGraphic"/></filter><filter id="l" x="519" y="404" width="220" height="108" filterUnits="userSpaceOnUse"><feOffset input="SourceAlpha"/><feGaussianBlur stdDeviation="10" result="m"/><feFlood flood-opacity="0.2"/><feComposite operator="in" in2="m"/><feComposite in="SourceGraphic"/></filter><filter id="n" x="0" y="0" width="560" height="756" filterUnits="userSpaceOnUse"><feOffset input="SourceAlpha"/><feGaussianBlur stdDeviation="15" result="o"/><feFlood flood-opacity="0.059"/><feComposite operator="in" in2="o"/><feComposite in="SourceGraphic"/></filter><filter id="p" x="316" y="208" width="32" height="32" filterUnits="userSpaceOnUse"><feOffset dy="1" input="SourceAlpha"/><feGaussianBlur stdDeviation="2" result="q"/><feFlood flood-color="#39307f" flood-opacity="0.149"/><feComposite operator="in" in2="q"/><feComposite in="SourceGraphic"/></filter><filter id="r" x="316" y="353" width="32" height="32" filterUnits="userSpaceOnUse"><feOffset dy="1" input="SourceAlpha"/><feGaussianBlur stdDeviation="2" result="s"/><feFlood flood-color="#39307f" flood-opacity="0.149"/><feComposite operator="in" in2="s"/><feComposite in="SourceGraphic"/></filter></defs><g transform="translate(54 36)"><g transform="translate(470 108)"><g class="x" transform="matrix(1, 0, 0, 1, -524, -144)"><path class="a" d="M0,0H189a20,20,0,0,1,20,20V430a20,20,0,0,1-20,20H0a0,0,0,0,1,0,0V0A0,0,0,0,1,0,0Z" transform="translate(524 144)"/></g><g class="b"><g class="w" transform="matrix(1, 0, 0, 1, -524, -144)"><path class="c" d="M15.445,245.592s21.535-70,102-66,88-88,88-88-1.926-107,119-89,13.082,161,13.082,161L324.445,346.108,5.477,298.416,0,249.592Z" transform="translate(498 327.41)"/></g><g class="v" transform="matrix(1, 0, 0, 1, -524, -144)"><path class="d" d="M15.445,245.592s21.535-70,102-66,88-88,88-88-1.926-107,119-89,13.082,161,13.082,161L324.445,346.108,5.477,298.416,0,249.592Z" transform="translate(737.81 383.11) rotate(180)"/></g></g><g transform="translate(25 112)"><g transform="translate(15)"><text class="e" transform="translate(65 17)"><tspan x="-62.073" y="0">Loan Amount</tspan></text><text class="f" transform="translate(0 47)"><tspan x="0" y="0">₹</tspan><tspan class="g" y="0" xml:space="preserve"> 1,00,000</tspan></text></g><g transform="translate(8 89)"><text class="f" transform="translate(19 47)"><tspan x="0" y="0">₹</tspan><tspan class="g" y="0" xml:space="preserve"> 15,000</tspan></text><text class="e" transform="translate(71.5 17)"><tspan x="-71.604" y="0">Your EMI will be</tspan></text></g><g transform="translate(0 178)"><g class="u" transform="matrix(1, 0, 0, 1, -549, -434)"><rect class="h" width="160" height="48" rx="24" transform="translate(549 434)"/></g><text class="i" transform="translate(80 29)"><tspan x="-43.498" y="0">GET MONEY</tspan></text></g></g></g><g class="t" transform="matrix(1, 0, 0, 1, -54, -36)"><rect class="h" width="470" height="666" rx="20" transform="translate(45 45)"/></g><g transform="translate(50 110)"><g transform="translate(0 67)"><rect class="j" width="370" height="4.488" rx="2.244" transform="translate(0 8)"/><rect class="a" width="230" height="4" rx="2" transform="translate(0 8)"/><g transform="translate(218)"><g class="s" transform="matrix(1, 0, 0, 1, -322, -213)"><circle class="h" cx="10" cy="10" r="10" transform="translate(322 213)"/></g><circle class="a" cx="5" cy="5" r="5" transform="translate(5 5)"/></g></g><text class="k" transform="translate(61 15)"><tspan x="-61.83" y="0">Monthly Income</tspan></text><text class="l" transform="translate(0 26)"><tspan x="0" y="27">₹</tspan><tspan class="g" y="27" xml:space="preserve"> 1,50,000</tspan></text><text class="m" transform="translate(0 102)"><tspan x="0" y="0">₹</tspan><tspan class="n" y="0" xml:space="preserve"> 1,00,000</tspan></text><text class="m" transform="translate(302 102)"><tspan x="0" y="0">₹</tspan><tspan class="n" y="0" xml:space="preserve"> 3,00,000</tspan></text></g><g transform="translate(50 257)"><g transform="translate(0 65)"><rect class="j" width="370" height="4.488" rx="2.244" transform="translate(0 8)"/><rect class="a" width="230" height="4" rx="2" transform="translate(0 8)"/><g transform="translate(218)"><g class="r" transform="matrix(1, 0, 0, 1, -322, -358)"><circle class="h" cx="10" cy="10" r="10" transform="translate(322 358)"/></g><circle class="a" cx="5" cy="5" r="5" transform="translate(5 5)"/></g></g><text class="k" transform="translate(64 15)"><tspan x="-64.912" y="0">Monthly Expense</tspan></text><text class="l" transform="translate(0 24)"><tspan x="0" y="27">₹</tspan><tspan class="g" y="27" xml:space="preserve"> 50,000</tspan></text></g><g transform="translate(50 550)"><rect class="o" width="370" height="1" rx="0.5" transform="translate(0 65)"/><text class="k" transform="translate(0 15)"><tspan x="0" y="0">EMI of existing loan (optional)</tspan></text><text class="l" transform="translate(0 24)"><tspan x="0" y="27">₹</tspan><tspan class="g" y="27" xml:space="preserve"> 15,000</tspan></text></g><g transform="translate(50 491)"><text class="k"><tspan x="0" y="15">Do you have any existing loans?</tspan></text><g transform="translate(343 2)"><rect class="a" width="27" height="16" rx="8"/><rect class="h" width="13.5" height="13.474" rx="6.737" transform="translate(11.813 1.263)"/><rect class="h" width="13.5" height="13.474" rx="6.737" transform="translate(11.813 1.263)"/></g></g><path class="p" d="M20,0H450a20,20,0,0,1,20,20V70a0,0,0,0,1,0,0H0a0,0,0,0,1,0,0V20A20,20,0,0,1,20,0Z"/><text class="q" transform="translate(235 44)"><tspan x="-99.607" y="0">Eligibility Calculator</tspan></text><g transform="translate(50 385)"><rect class="o" width="370" height="1" rx="0.5" transform="translate(0 65)"/><text class="k" transform="translate(0 15)"><tspan x="0" y="0">Repayment Tenure</tspan></text><text class="l" transform="translate(0 24)"><tspan x="0" y="27">6 Months</tspan></text></g></g></svg>